<svg xmlns="http://www.w3.org/2000/svg" viewBox="0 0 256 256" width="256" height="256" role="img" aria-label="eliot">
  <rect x="0" y="0" width="256" height="256" rx="56.3" fill="#0F1419"/>
  <g transform="translate(67.53,179.20) scale(0.14027397260273974,-0.14027397260273974)"><path d="M300 -10Q201 -10 140.5 49.0Q80 108 80 210V340Q80 442 140.5 501.0Q201 560 300 560Q366 560 415.5 533.5Q465 507 492.5 459.5Q520 412 520 349V250H177V202Q177 142 210.0 108.0Q243 74 300 74Q348 74 379.0 92.0Q410 110 416 142H515Q505 72 446.0 31.0Q387 -10 300 -10ZM177 349V323H423V349Q423 412 391.0 446.0Q359 480 300 480Q241 480 209.0 446.0Q177 412 177 349Z" fill="#EDEAE3"/></g>
  <rect x="156.76" y="76.80" width="20.48" height="102.40" fill="#2EC27E"/>
</svg>