<svg xmlns="http://www.w3.org/2000/svg" viewBox="0 0 900 640" width="900" height="640" role="img" aria-label="Eliot brand asset overview"><rect x="0" y="0" width="900" height="640" rx="16" fill="#FBFAF6"/><text x="40" y="56" font-family="ui-monospace,monospace" font-size="22" fill="#0F1419">eliot — brand assets</text><text x="40" y="80" font-family="sans-serif" font-size="13" fill="#6b6b66">wordmark + companion mark · vector outlines (JetBrains Mono, OFL)</text><rect x="40" y="104" width="500" height="120" rx="12" fill="#0F1419"/><svg x="72" y="138" width="260" height="80.58941639876676" viewBox="0 0 437.47679999999997 135.6"><g transform="translate(24.00,111.60) scale(0.12,-0.12)"><path d="M300 -10Q201 -10 140.5 49.0Q80 108 80 210V340Q80 442 140.5 501.0Q201 560 300 560Q366 560 415.5 533.5Q465 507 492.5 459.5Q520 412 520 349V250H177V202Q177 142 210.0 108.0Q243 74 300 74Q348 74 379.0 92.0Q410 110 416 142H515Q505 72 446.0 31.0Q387 -10 300 -10ZM177 349V323H423V349Q423 412 391.0 446.0Q359 480 300 480Q241 480 209.0 446.0Q177 412 177 349Z" fill="#EDEAE3"/></g><g transform="translate(96.00,111.60) scale(0.12,-0.12)"><path d="M382 0Q307 0 262.0 44.0Q217 88 217 161V640H29V730H316V162Q316 129 334.5 109.5Q353 90 385 90H552V0Z" fill="#EDEAE3"/></g><g transform="translate(168.00,111.60) scale(0.12,-0.12)"><path d="M83 0V90H276V460H103V550H375V90H556V0ZM316 647Q282 647 262.0 664.5Q242 682 242 712Q242 743 262.0 761.0Q282 779 316 779Q350 779 370.0 761.0Q390 743 390 712Q390 682 370.0 664.5Q350 647 316 647Z" fill="#EDEAE3"/></g><g transform="translate(240.00,111.60) scale(0.12,-0.12)"><path d="M300 -8Q199 -8 139.5 50.0Q80 108 80 212V338Q80 442 139.5 500.0Q199 558 300 558Q401 558 460.5 500.0Q520 442 520 338V212Q520 108 460.5 50.0Q401 -8 300 -8ZM300 79Q356 79 388.5 110.5Q421 142 421 203V347Q421 408 388.5 439.5Q356 471 300 471Q244 471 211.5 439.5Q179 408 179 347V203Q179 142 211.5 110.5Q244 79 300 79Z" fill="#EDEAE3"/></g><g transform="translate(312.00,111.60) scale(0.12,-0.12)"><path d="M355 0Q284 0 242.5 41.0Q201 82 201 150V460H44V550H201V705H300V550H523V460H300V151Q300 124 315.5 107.0Q331 90 357 90H518V0Z" fill="#EDEAE3"/></g><rect x="398.76" y="24.00" width="14.72" height="87.60" fill="#2EC27E"/></svg><text x="556" y="150" font-family="sans-serif" font-size="13" fill="#6b6b66">on ink</text><rect x="40" y="240" width="500" height="120" rx="12" fill="#FFFFFF" stroke="#e3e0d7"/><svg x="72" y="274" width="260" height="80.58941639876676" viewBox="0 0 437.47679999999997 135.6"><g transform="translate(24.00,111.60) scale(0.12,-0.12)"><path d="M300 -10Q201 -10 140.5 49.0Q80 108 80 210V340Q80 442 140.5 501.0Q201 560 300 560Q366 560 415.5 533.5Q465 507 492.5 459.5Q520 412 520 349V250H177V202Q177 142 210.0 108.0Q243 74 300 74Q348 74 379.0 92.0Q410 110 416 142H515Q505 72 446.0 31.0Q387 -10 300 -10ZM177 349V323H423V349Q423 412 391.0 446.0Q359 480 300 480Q241 480 209.0 446.0Q177 412 177 349Z" fill="#0F1419"/></g><g transform="translate(96.00,111.60) scale(0.12,-0.12)"><path d="M382 0Q307 0 262.0 44.0Q217 88 217 161V640H29V730H316V162Q316 129 334.5 109.5Q353 90 385 90H552V0Z" fill="#0F1419"/></g><g transform="translate(168.00,111.60) scale(0.12,-0.12)"><path d="M83 0V90H276V460H103V550H375V90H556V0ZM316 647Q282 647 262.0 664.5Q242 682 242 712Q242 743 262.0 761.0Q282 779 316 779Q350 779 370.0 761.0Q390 743 390 712Q390 682 370.0 664.5Q350 647 316 647Z" fill="#0F1419"/></g><g transform="translate(240.00,111.60) scale(0.12,-0.12)"><path d="M300 -8Q199 -8 139.5 50.0Q80 108 80 212V338Q80 442 139.5 500.0Q199 558 300 558Q401 558 460.5 500.0Q520 442 520 338V212Q520 108 460.5 50.0Q401 -8 300 -8ZM300 79Q356 79 388.5 110.5Q421 142 421 203V347Q421 408 388.5 439.5Q356 471 300 471Q244 471 211.5 439.5Q179 408 179 347V203Q179 142 211.5 110.5Q244 79 300 79Z" fill="#0F1419"/></g><g transform="translate(312.00,111.60) scale(0.12,-0.12)"><path d="M355 0Q284 0 242.5 41.0Q201 82 201 150V460H44V550H201V705H300V550H523V460H300V151Q300 124 315.5 107.0Q331 90 357 90H518V0Z" fill="#0F1419"/></g><rect x="398.76" y="24.00" width="14.72" height="87.60" fill="#2EC27E"/></svg><text x="556" y="286" font-family="sans-serif" font-size="13" fill="#6b6b66">on paper</text><rect x="40" y="376" width="500" height="120" rx="12" fill="#0F1419"/><svg x="72" y="410" width="260" height="80.58941639876676" viewBox="0 0 437.47679999999997 135.6"><g transform="translate(24.00,111.60) scale(0.12,-0.12)"><path d="M300 -10Q201 -10 140.5 49.0Q80 108 80 210V340Q80 442 140.5 501.0Q201 560 300 560Q366 560 415.5 533.5Q465 507 492.5 459.5Q520 412 520 349V250H177V202Q177 142 210.0 108.0Q243 74 300 74Q348 74 379.0 92.0Q410 110 416 142H515Q505 72 446.0 31.0Q387 -10 300 -10ZM177 349V323H423V349Q423 412 391.0 446.0Q359 480 300 480Q241 480 209.0 446.0Q177 412 177 349Z" fill="#EDEAE3"/></g><g transform="translate(96.00,111.60) scale(0.12,-0.12)"><path d="M382 0Q307 0 262.0 44.0Q217 88 217 161V640H29V730H316V162Q316 129 334.5 109.5Q353 90 385 90H552V0Z" fill="#EDEAE3"/></g><g transform="translate(168.00,111.60) scale(0.12,-0.12)"><path d="M83 0V90H276V460H103V550H375V90H556V0ZM316 647Q282 647 262.0 664.5Q242 682 242 712Q242 743 262.0 761.0Q282 779 316 779Q350 779 370.0 761.0Q390 743 390 712Q390 682 370.0 664.5Q350 647 316 647Z" fill="#EDEAE3"/></g><g transform="translate(240.00,111.60) scale(0.12,-0.12)"><path d="M300 -8Q199 -8 139.5 50.0Q80 108 80 212V338Q80 442 139.5 500.0Q199 558 300 558Q401 558 460.5 500.0Q520 442 520 338V212Q520 108 460.5 50.0Q401 -8 300 -8ZM300 79Q356 79 388.5 110.5Q421 142 421 203V347Q421 408 388.5 439.5Q356 471 300 471Q244 471 211.5 439.5Q179 408 179 347V203Q179 142 211.5 110.5Q244 79 300 79Z" fill="#EDEAE3"/></g><g transform="translate(312.00,111.60) scale(0.12,-0.12)"><path d="M355 0Q284 0 242.5 41.0Q201 82 201 150V460H44V550H201V705H300V550H523V460H300V151Q300 124 315.5 107.0Q331 90 357 90H518V0Z" fill="#EDEAE3"/></g><rect x="398.76" y="24.00" width="14.72" height="87.60" fill="#C97B43"/></svg><text x="556" y="388" font-family="sans-serif" font-size="13" fill="#6b6b66">copper variant</text><text x="620" y="124" font-family="sans-serif" font-size="13" fill="#6b6b66">square mark / favicon</text><rect x="620" y="136" width="120" height="120" rx="26" fill="#0F1419"/><svg x="620" y="136" width="120" height="120" viewBox="0 0 256 256"><g transform="translate(67.53,179.20) scale(0.14027397260273974,-0.14027397260273974)"><path d="M300 -10Q201 -10 140.5 49.0Q80 108 80 210V340Q80 442 140.5 501.0Q201 560 300 560Q366 560 415.5 533.5Q465 507 492.5 459.5Q520 412 520 349V250H177V202Q177 142 210.0 108.0Q243 74 300 74Q348 74 379.0 92.0Q410 110 416 142H515Q505 72 446.0 31.0Q387 -10 300 -10ZM177 349V323H423V349Q423 412 391.0 446.0Q359 480 300 480Q241 480 209.0 446.0Q177 412 177 349Z" fill="#EDEAE3"/></g><rect x="156.76" y="76.80" width="20.48" height="102.40" fill="#2EC27E"/></svg><rect x="756" y="136" width="120" height="120" rx="26" fill="#0F1419"/><svg x="756" y="136" width="120" height="120" viewBox="0 0 256 256"><g transform="translate(67.53,179.20) scale(0.14027397260273974,-0.14027397260273974)"><path d="M300 -10Q201 -10 140.5 49.0Q80 108 80 210V340Q80 442 140.5 501.0Q201 560 300 560Q366 560 415.5 533.5Q465 507 492.5 459.5Q520 412 520 349V250H177V202Q177 142 210.0 108.0Q243 74 300 74Q348 74 379.0 92.0Q410 110 416 142H515Q505 72 446.0 31.0Q387 -10 300 -10ZM177 349V323H423V349Q423 412 391.0 446.0Q359 480 300 480Q241 480 209.0 446.0Q177 412 177 349Z" fill="#EDEAE3"/></g><rect x="156.76" y="76.80" width="20.48" height="102.40" fill="#C97B43"/></svg><rect x="620" y="280" width="48" height="48" rx="10.6" fill="#0F1419"/><svg x="620" y="280" width="48" height="48" viewBox="0 0 256 256"><g transform="translate(67.53,179.20) scale(0.14027397260273974,-0.14027397260273974)"><path d="M300 -10Q201 -10 140.5 49.0Q80 108 80 210V340Q80 442 140.5 501.0Q201 560 300 560Q366 560 415.5 533.5Q465 507 492.5 459.5Q520 412 520 349V250H177V202Q177 142 210.0 108.0Q243 74 300 74Q348 74 379.0 92.0Q410 110 416 142H515Q505 72 446.0 31.0Q387 -10 300 -10ZM177 349V323H423V349Q423 412 391.0 446.0Q359 480 300 480Q241 480 209.0 446.0Q177 412 177 349Z" fill="#EDEAE3"/></g><rect x="156.76" y="76.80" width="20.48" height="102.40" fill="#2EC27E"/></svg><text x="644.0" y="344" text-anchor="middle" font-family="sans-serif" font-size="11" fill="#6b6b66">48px</text><rect x="684" y="280" width="32" height="32" rx="7.0" fill="#0F1419"/><svg x="684" y="280" width="32" height="32" viewBox="0 0 256 256"><g transform="translate(67.53,179.20) scale(0.14027397260273974,-0.14027397260273974)"><path d="M300 -10Q201 -10 140.5 49.0Q80 108 80 210V340Q80 442 140.5 501.0Q201 560 300 560Q366 560 415.5 533.5Q465 507 492.5 459.5Q520 412 520 349V250H177V202Q177 142 210.0 108.0Q243 74 300 74Q348 74 379.0 92.0Q410 110 416 142H515Q505 72 446.0 31.0Q387 -10 300 -10ZM177 349V323H423V349Q423 412 391.0 446.0Q359 480 300 480Q241 480 209.0 446.0Q177 412 177 349Z" fill="#EDEAE3"/></g><rect x="156.76" y="76.80" width="20.48" height="102.40" fill="#2EC27E"/></svg><text x="700.0" y="328" text-anchor="middle" font-family="sans-serif" font-size="11" fill="#6b6b66">32px</text><rect x="748" y="280" width="16" height="16" rx="3.5" fill="#0F1419"/><svg x="748" y="280" width="16" height="16" viewBox="0 0 256 256"><g transform="translate(67.53,179.20) scale(0.14027397260273974,-0.14027397260273974)"><path d="M300 -10Q201 -10 140.5 49.0Q80 108 80 210V340Q80 442 140.5 501.0Q201 560 300 560Q366 560 415.5 533.5Q465 507 492.5 459.5Q520 412 520 349V250H177V202Q177 142 210.0 108.0Q243 74 300 74Q348 74 379.0 92.0Q410 110 416 142H515Q505 72 446.0 31.0Q387 -10 300 -10ZM177 349V323H423V349Q423 412 391.0 446.0Q359 480 300 480Q241 480 209.0 446.0Q177 412 177 349Z" fill="#EDEAE3"/></g><rect x="156.76" y="76.80" width="20.48" height="102.40" fill="#2EC27E"/></svg><text x="756.0" y="312" text-anchor="middle" font-family="sans-serif" font-size="11" fill="#6b6b66">16px</text><text x="40" y="526" font-family="sans-serif" font-size="13" fill="#6b6b66">palette</text><rect x="40" y="540" width="40" height="40" rx="8" fill="#0F1419" stroke="#e3e0d7"/><text x="90" y="558" font-family="sans-serif" font-size="13" fill="#0F1419">ink</text><text x="90" y="574" font-family="ui-monospace,monospace" font-size="12" fill="#6b6b66">#0F1419</text><rect x="190" y="540" width="40" height="40" rx="8" fill="#2EC27E" stroke="#e3e0d7"/><text x="240" y="558" font-family="sans-serif" font-size="13" fill="#0F1419">signal green</text><text x="240" y="574" font-family="ui-monospace,monospace" font-size="12" fill="#6b6b66">#2EC27E</text><rect x="340" y="540" width="40" height="40" rx="8" fill="#EDEAE3" stroke="#e3e0d7"/><text x="390" y="558" font-family="sans-serif" font-size="13" fill="#0F1419">paper</text><text x="390" y="574" font-family="ui-monospace,monospace" font-size="12" fill="#6b6b66">#EDEAE3</text><rect x="490" y="540" width="40" height="40" rx="8" fill="#C97B43" stroke="#e3e0d7"/><text x="540" y="558" font-family="sans-serif" font-size="13" fill="#0F1419">copper alt</text><text x="540" y="574" font-family="ui-monospace,monospace" font-size="12" fill="#6b6b66">#C97B43</text></svg>